<mxfile host="app.diagrams.net" modified="2023-11-22T08:36:57.290Z" agent="Mozilla/5.0 (Windows NT 10.0; Win64; x64) AppleWebKit/537.36 (KHTML, like Gecko) Chrome/119.0.0.0 Safari/537.36" etag="dGrkaZVL0QPskG7JBlBp" version="22.1.3" type="github">
  <diagram name="第 1 页" id="OBwTVY8treiyQM0yOQKa">
    <mxGraphModel dx="718" dy="1095" grid="1" gridSize="10" guides="1" tooltips="1" connect="1" arrows="1" fold="1" page="1" pageScale="1" pageWidth="827" pageHeight="1169" math="0" shadow="0">
      <root>
        <mxCell id="0" />
        <mxCell id="1" parent="0" />
        <mxCell id="wYicZfZlr3ZvlosR4cRB-1" value="XsStreamReader" style="rounded=0;whiteSpace=wrap;html=1;" vertex="1" parent="1">
          <mxGeometry x="420" y="110" width="120" height="60" as="geometry" />
        </mxCell>
        <mxCell id="wYicZfZlr3ZvlosR4cRB-2" value="XsLiveAnimator" style="rounded=0;whiteSpace=wrap;html=1;" vertex="1" parent="1">
          <mxGeometry x="190" y="110" width="120" height="60" as="geometry" />
        </mxCell>
        <mxCell id="wYicZfZlr3ZvlosR4cRB-3" value="XsStreamReaderThread" style="rounded=0;whiteSpace=wrap;html=1;" vertex="1" parent="1">
          <mxGeometry x="40" y="370" width="160" height="60" as="geometry" />
        </mxCell>
        <mxCell id="wYicZfZlr3ZvlosR4cRB-4" value="" style="endArrow=classic;html=1;rounded=0;entryX=1;entryY=0.5;entryDx=0;entryDy=0;exitX=0;exitY=0.5;exitDx=0;exitDy=0;" edge="1" parent="1" source="wYicZfZlr3ZvlosR4cRB-1" target="wYicZfZlr3ZvlosR4cRB-2">
          <mxGeometry width="50" height="50" relative="1" as="geometry">
            <mxPoint x="330" y="270" as="sourcePoint" />
            <mxPoint x="380" y="220" as="targetPoint" />
          </mxGeometry>
        </mxCell>
        <mxCell id="wYicZfZlr3ZvlosR4cRB-5" value="LatestPose" style="text;html=1;strokeColor=none;fillColor=none;align=center;verticalAlign=middle;whiteSpace=wrap;rounded=0;" vertex="1" parent="1">
          <mxGeometry x="330" y="110" width="60" height="30" as="geometry" />
        </mxCell>
        <mxCell id="wYicZfZlr3ZvlosR4cRB-6" value="XsBodyAnimationSegment" style="rounded=0;whiteSpace=wrap;html=1;" vertex="1" parent="1">
          <mxGeometry x="50" y="460" width="160" height="60" as="geometry" />
        </mxCell>
        <mxCell id="wYicZfZlr3ZvlosR4cRB-7" value="XsFingerAnimationSegment" style="rounded=0;whiteSpace=wrap;html=1;" vertex="1" parent="1">
          <mxGeometry x="50" y="525" width="160" height="60" as="geometry" />
        </mxCell>
        <mxCell id="wYicZfZlr3ZvlosR4cRB-8" value="bodySegmentOrder" style="rounded=0;whiteSpace=wrap;html=1;" vertex="1" parent="1">
          <mxGeometry x="220" y="460" width="160" height="60" as="geometry" />
        </mxCell>
        <mxCell id="wYicZfZlr3ZvlosR4cRB-9" value="fingerSegmentOrder" style="rounded=0;whiteSpace=wrap;html=1;" vertex="1" parent="1">
          <mxGeometry x="220" y="525" width="160" height="60" as="geometry" />
        </mxCell>
        <mxCell id="wYicZfZlr3ZvlosR4cRB-10" value="Mecanim Bones" style="rounded=1;whiteSpace=wrap;html=1;" vertex="1" parent="1">
          <mxGeometry x="450" y="490" width="120" height="60" as="geometry" />
        </mxCell>
        <mxCell id="wYicZfZlr3ZvlosR4cRB-11" value="ConnectThread" style="rounded=0;whiteSpace=wrap;html=1;" vertex="1" parent="1">
          <mxGeometry x="170" y="740" width="120" height="60" as="geometry" />
        </mxCell>
        <mxCell id="wYicZfZlr3ZvlosR4cRB-13" value="ActorThread1" style="swimlane;fontStyle=0;childLayout=stackLayout;horizontal=1;startSize=30;horizontalStack=0;resizeParent=1;resizeParentMax=0;resizeLast=0;collapsible=1;marginBottom=0;whiteSpace=wrap;html=1;" vertex="1" parent="1">
          <mxGeometry x="370" y="740" width="140" height="60" as="geometry" />
        </mxCell>
        <mxCell id="wYicZfZlr3ZvlosR4cRB-14" value="Process udp pkg" style="text;strokeColor=none;fillColor=none;align=left;verticalAlign=middle;spacingLeft=4;spacingRight=4;overflow=hidden;points=[[0,0.5],[1,0.5]];portConstraint=eastwest;rotatable=0;whiteSpace=wrap;html=1;" vertex="1" parent="wYicZfZlr3ZvlosR4cRB-13">
          <mxGeometry y="30" width="140" height="30" as="geometry" />
        </mxCell>
        <mxCell id="wYicZfZlr3ZvlosR4cRB-17" value="Reader" style="rounded=0;whiteSpace=wrap;html=1;" vertex="1" parent="1">
          <mxGeometry x="20" y="740" width="120" height="60" as="geometry" />
        </mxCell>
        <mxCell id="wYicZfZlr3ZvlosR4cRB-18" value="ActorThreadN" style="swimlane;fontStyle=0;childLayout=stackLayout;horizontal=1;startSize=30;horizontalStack=0;resizeParent=1;resizeParentMax=0;resizeLast=0;collapsible=1;marginBottom=0;whiteSpace=wrap;html=1;" vertex="1" parent="1">
          <mxGeometry x="550" y="740" width="140" height="60" as="geometry" />
        </mxCell>
        <mxCell id="wYicZfZlr3ZvlosR4cRB-19" value="Process udp pkg" style="text;strokeColor=none;fillColor=none;align=left;verticalAlign=middle;spacingLeft=4;spacingRight=4;overflow=hidden;points=[[0,0.5],[1,0.5]];portConstraint=eastwest;rotatable=0;whiteSpace=wrap;html=1;" vertex="1" parent="wYicZfZlr3ZvlosR4cRB-18">
          <mxGeometry y="30" width="140" height="30" as="geometry" />
        </mxCell>
        <mxCell id="wYicZfZlr3ZvlosR4cRB-21" value="" style="endArrow=none;dashed=1;html=1;rounded=0;exitX=1;exitY=0.5;exitDx=0;exitDy=0;entryX=0;entryY=0.5;entryDx=0;entryDy=0;" edge="1" parent="1" source="wYicZfZlr3ZvlosR4cRB-13" target="wYicZfZlr3ZvlosR4cRB-18">
          <mxGeometry width="50" height="50" relative="1" as="geometry">
            <mxPoint x="510" y="710" as="sourcePoint" />
            <mxPoint x="560" y="660" as="targetPoint" />
          </mxGeometry>
        </mxCell>
        <mxCell id="wYicZfZlr3ZvlosR4cRB-22" value="" style="endArrow=classic;html=1;rounded=0;exitX=1;exitY=0.5;exitDx=0;exitDy=0;entryX=0;entryY=0.5;entryDx=0;entryDy=0;" edge="1" parent="1" source="wYicZfZlr3ZvlosR4cRB-17" target="wYicZfZlr3ZvlosR4cRB-11">
          <mxGeometry width="50" height="50" relative="1" as="geometry">
            <mxPoint x="160" y="920" as="sourcePoint" />
            <mxPoint x="210" y="870" as="targetPoint" />
          </mxGeometry>
        </mxCell>
        <mxCell id="wYicZfZlr3ZvlosR4cRB-23" value="" style="endArrow=classic;html=1;rounded=0;exitX=1;exitY=0.5;exitDx=0;exitDy=0;entryX=0;entryY=0.5;entryDx=0;entryDy=0;" edge="1" parent="1" source="wYicZfZlr3ZvlosR4cRB-11" target="wYicZfZlr3ZvlosR4cRB-13">
          <mxGeometry width="50" height="50" relative="1" as="geometry">
            <mxPoint x="270" y="710" as="sourcePoint" />
            <mxPoint x="320" y="660" as="targetPoint" />
          </mxGeometry>
        </mxCell>
        <mxCell id="wYicZfZlr3ZvlosR4cRB-24" value="XSens Raw Data" style="rounded=0;whiteSpace=wrap;html=1;" vertex="1" parent="1">
          <mxGeometry x="20" y="890" width="120" height="60" as="geometry" />
        </mxCell>
        <mxCell id="wYicZfZlr3ZvlosR4cRB-26" value="Axis&amp;nbsp;Convert&lt;br&gt;XSens-&amp;gt;Unity" style="shape=process;whiteSpace=wrap;html=1;backgroundOutline=1;" vertex="1" parent="1">
          <mxGeometry x="170" y="890" width="120" height="60" as="geometry" />
        </mxCell>
        <mxCell id="wYicZfZlr3ZvlosR4cRB-28" value="Retarget" style="shape=process;whiteSpace=wrap;html=1;backgroundOutline=1;" vertex="1" parent="1">
          <mxGeometry x="320" y="890" width="120" height="60" as="geometry" />
        </mxCell>
        <mxCell id="wYicZfZlr3ZvlosR4cRB-30" value="Agent Avatar" style="rounded=0;whiteSpace=wrap;html=1;" vertex="1" parent="1">
          <mxGeometry x="470" y="890" width="120" height="60" as="geometry" />
        </mxCell>
        <mxCell id="wYicZfZlr3ZvlosR4cRB-31" value="" style="endArrow=classic;html=1;rounded=0;exitX=1;exitY=0.5;exitDx=0;exitDy=0;entryX=0;entryY=0.5;entryDx=0;entryDy=0;" edge="1" parent="1" source="wYicZfZlr3ZvlosR4cRB-24" target="wYicZfZlr3ZvlosR4cRB-26">
          <mxGeometry width="50" height="50" relative="1" as="geometry">
            <mxPoint x="180" y="870" as="sourcePoint" />
            <mxPoint x="230" y="820" as="targetPoint" />
          </mxGeometry>
        </mxCell>
        <mxCell id="wYicZfZlr3ZvlosR4cRB-32" value="" style="endArrow=classic;html=1;rounded=0;exitX=1;exitY=0.5;exitDx=0;exitDy=0;entryX=0;entryY=0.5;entryDx=0;entryDy=0;" edge="1" parent="1" source="wYicZfZlr3ZvlosR4cRB-26" target="wYicZfZlr3ZvlosR4cRB-28">
          <mxGeometry width="50" height="50" relative="1" as="geometry">
            <mxPoint x="150" y="930" as="sourcePoint" />
            <mxPoint x="180" y="930" as="targetPoint" />
          </mxGeometry>
        </mxCell>
        <mxCell id="wYicZfZlr3ZvlosR4cRB-33" value="" style="endArrow=classic;html=1;rounded=0;exitX=1;exitY=0.5;exitDx=0;exitDy=0;entryX=0;entryY=0.5;entryDx=0;entryDy=0;" edge="1" parent="1" source="wYicZfZlr3ZvlosR4cRB-28" target="wYicZfZlr3ZvlosR4cRB-30">
          <mxGeometry width="50" height="50" relative="1" as="geometry">
            <mxPoint x="300" y="930" as="sourcePoint" />
            <mxPoint x="330" y="930" as="targetPoint" />
          </mxGeometry>
        </mxCell>
        <mxCell id="wYicZfZlr3ZvlosR4cRB-34" value="" style="endArrow=none;dashed=1;html=1;rounded=0;exitX=0.5;exitY=1;exitDx=0;exitDy=0;entryX=0.506;entryY=1.029;entryDx=0;entryDy=0;entryPerimeter=0;" edge="1" parent="1" source="wYicZfZlr3ZvlosR4cRB-17" target="wYicZfZlr3ZvlosR4cRB-14">
          <mxGeometry width="50" height="50" relative="1" as="geometry">
            <mxPoint x="220" y="870" as="sourcePoint" />
            <mxPoint x="400" y="850" as="targetPoint" />
            <Array as="points">
              <mxPoint x="80" y="850" />
              <mxPoint x="441" y="850" />
            </Array>
          </mxGeometry>
        </mxCell>
        <mxCell id="wYicZfZlr3ZvlosR4cRB-35" value="Read" style="text;html=1;strokeColor=none;fillColor=none;align=center;verticalAlign=middle;whiteSpace=wrap;rounded=0;" vertex="1" parent="1">
          <mxGeometry x="200" y="820" width="60" height="30" as="geometry" />
        </mxCell>
        <mxCell id="wYicZfZlr3ZvlosR4cRB-36" value="Dispatch" style="text;html=1;strokeColor=none;fillColor=none;align=center;verticalAlign=middle;whiteSpace=wrap;rounded=0;" vertex="1" parent="1">
          <mxGeometry x="300" y="740" width="60" height="30" as="geometry" />
        </mxCell>
      </root>
    </mxGraphModel>
  </diagram>
</mxfile>
